HIERARCHY
ROOT hip
{
  OFFSET 0 0 0
  CHANNELS 6 Xposition Yposition Zposition Zrotation Yrotation Xrotation
  JOINT abdomen
  {
    OFFSET 0 20.6881 -0.73152
    CHANNELS 3 Zrotation Xrotation Yrotation
    JOINT chest
    {
      OFFSET 0 11.7043 -0.48768
      CHANNELS 3 Zrotation Xrotation Yrotation
      JOINT neck
      {
        OFFSET 0 22.1894 -2.19456
        CHANNELS 3 Zrotation Xrotation Yrotation
        JOINT head
        {
          OFFSET -0.24384 7.07133 1.2192
          CHANNELS 3 Zrotation Xrotation Yrotation
          JOINT leftEye
          {
            OFFSET 4.14528 8.04674 8.04672
            CHANNELS 3 Zrotation Xrotation Yrotation
            End Site
            {
              OFFSET 1 0 0
            }
          }
          JOINT rightEye
          {
            OFFSET -3.6576 8.04674 8.04672
            CHANNELS 3 Zrotation Xrotation Yrotation
            End Site
            {
              OFFSET 1 0 0
            }
          }
        }
      }
      JOINT rCollar
      {
        OFFSET -2.68224 19.2634 -4.8768
        CHANNELS 3 Zrotation Xrotation Yrotation
        JOINT rShldr
        {
          OFFSET -8.77824 -1.95073 1.46304
          CHANNELS 3 Zrotation Xrotation Yrotation
          JOINT rForeArm
          {
            OFFSET -28.1742 -1.7115 0.48768
            CHANNELS 3 Zrotation Xrotation Yrotation
            JOINT rHand
            {
              OFFSET -22.5879 0.773209 7.07136
              CHANNELS 3 Zrotation Xrotation Yrotation
              JOINT rThumb1
              {
                OFFSET -1.2192 -0.487915 3.41376
                CHANNELS 3 Zrotation Xrotation Yrotation
                JOINT rThumb2
                {
                  OFFSET -3.37035 -0.52449 3.41376
                  CHANNELS 3 Zrotation Xrotation Yrotation
                  End Site
                  {
                    OFFSET -1.78271 -1.18214 1.43049
                  }
                }
              }
              JOINT rIndex1
              {
                OFFSET -7.75947 0.938293 5.60832
                CHANNELS 3 Zrotation Xrotation Yrotation
                JOINT rIndex2
                {
                  OFFSET -2.54057 -0.884171 1.56538
                  CHANNELS 3 Zrotation Xrotation Yrotation
                  End Site
                  {
                    OFFSET -1.62519 -0.234802 1.16502
                  }
                }
              }
              JOINT rMid1
              {
                OFFSET -8.24714 1.18213 3.41376
                CHANNELS 3 Zrotation Xrotation Yrotation
                JOINT rMid2
                {
                  OFFSET -3.10165 -0.590103 1.0647
                  CHANNELS 3 Zrotation Xrotation Yrotation
                  End Site
                  {
                    OFFSET -2.48547 -0.328903 0.83742
                  }
                }
              }
              JOINT rRing1
              {
                OFFSET -8.82822 0.546677 1.51678
                CHANNELS 3 Zrotation Xrotation Yrotation
                JOINT rRing2
                {
                  OFFSET -2.60934 -0.819778 -0.0198488
                  CHANNELS 3 Zrotation Xrotation Yrotation
                  End Site
                  {
                    OFFSET -2.33842 -0.294052 0.168128
                  }
                }
              }
              JOINT rPinky1
              {
                OFFSET -8.27202 -0.0477905 -0.4584
                CHANNELS 3 Zrotation Xrotation Yrotation
                JOINT rPinky2
                {
                  OFFSET -1.82734 -0.647385 -0.700984
                  CHANNELS 3 Zrotation Xrotation Yrotation
                  End Site
                  {
                    OFFSET -1.69225 -0.51767 -0.607171
                  }
                }
              }
            }
          }
        }
      }
      JOINT lCollar
      {
        OFFSET 2.68224 19.2634 -4.8768
        CHANNELS 3 Zrotation Xrotation Yrotation
        JOINT lShldr
        {
          OFFSET 8.77824 -1.95073 1.46304
          CHANNELS 3 Zrotation Xrotation Yrotation
          JOINT lForeArm
          {
            OFFSET 28.1742 -1.7115 0.48768
            CHANNELS 3 Zrotation Xrotation Yrotation
            JOINT lHand
            {
              OFFSET 22.5879 0.773209 7.07136
              CHANNELS 3 Zrotation Xrotation Yrotation
              JOINT lThumb1
              {
                OFFSET 1.2192 -0.487915 3.41376
                CHANNELS 3 Zrotation Xrotation Yrotation
                JOINT lThumb2
                {
                  OFFSET 3.37035 -0.52449 3.41376
                  CHANNELS 3 Zrotation Xrotation Yrotation
                  End Site
                  {
                    OFFSET 1.78271 -1.18214 1.43049
                  }
                }
              }
              JOINT lIndex1
              {
                OFFSET 7.75947 0.938293 5.60832
                CHANNELS 3 Zrotation Xrotation Yrotation
                JOINT lIndex2
                {
                  OFFSET 2.54057 -0.884171 1.56538
                  CHANNELS 3 Zrotation Xrotation Yrotation
                  End Site
                  {
                    OFFSET 1.62519 -0.234802 1.16502
                  }
                }
              }
              JOINT lMid1
              {
                OFFSET 8.24714 1.18213 3.41376
                CHANNELS 3 Zrotation Xrotation Yrotation
                JOINT lMid2
                {
                  OFFSET 3.10165 -0.590103 1.0647
                  CHANNELS 3 Zrotation Xrotation Yrotation
                  End Site
                  {
                    OFFSET 2.48547 -0.328903 0.83742
                  }
                }
              }
              JOINT lRing1
              {
                OFFSET 8.82822 0.546677 1.51678
                CHANNELS 3 Zrotation Xrotation Yrotation
                JOINT lRing2
                {
                  OFFSET 2.60934 -0.819778 -0.0198488
                  CHANNELS 3 Zrotation Xrotation Yrotation
                  End Site
                  {
                    OFFSET 2.33842 -0.294052 0.168128
                  }
                }
              }
              JOINT lPinky1
              {
                OFFSET 8.27202 -0.0477905 -0.4584
                CHANNELS 3 Zrotation Xrotation Yrotation
                JOINT lPinky2
                {
                  OFFSET 1.82734 -0.647385 -0.700984
                  CHANNELS 3 Zrotation Xrotation Yrotation
                  End Site
                  {
                    OFFSET 1.69225 -0.51767 -0.607171
                  }
                }
              }
            }
          }
        }
      }
    }
  }
  JOINT rButtock
  {
    OFFSET -8.77824 4.35084 1.2192
    CHANNELS 3 Zrotation Xrotation Yrotation
    JOINT rThigh
    {
      OFFSET 0 -1.70687 -2.19456
      CHANNELS 3 Zrotation Xrotation Yrotation
      JOINT rShin
      {
        OFFSET 0 -36.8199 0.73152
        CHANNELS 3 Zrotation Xrotation Yrotation
        JOINT rFoot
        {
          OFFSET 0.73152 -45.1104 -5.12064
          CHANNELS 3 Zrotation Xrotation Yrotation
          End Site
          {
            OFFSET -1.1221 -3.69964 12.103
          }
        }
      }
    }
  }
  JOINT lButtock
  {
    OFFSET 8.77824 4.35084 1.2192
    CHANNELS 3 Zrotation Xrotation Yrotation
    JOINT lThigh
    {
      OFFSET 0 -1.70687 -2.19456
      CHANNELS 3 Zrotation Xrotation Yrotation
      JOINT lShin
      {
        OFFSET 0 -36.8199 0.73152
        CHANNELS 3 Zrotation Xrotation Yrotation
        JOINT lFoot
        {
          OFFSET -0.73152 -45.1104 -5.12064
          CHANNELS 3 Zrotation Xrotation Yrotation
          End Site
          {
            OFFSET 1.1221 -3.69964 12.103
          }
        }
      }
    }
  }
}
MOTION
Frames:	8
Frame Time:	0.00833333
-2.2114 80.6406 41.9752 1.0439 -14.444 0.7988 -1.72801 1.70398 -18.6897 -0.52356 -8.43893 -5.48738 -2.35248 -11.8611 1.19117 -14.9834 11.5443 4.71954 -0.0 0.0 0.0 -0.0 0.0 0.0 2.48048e-14 -8.54518e-15 2.50422e-13 85.5503 10.5297 -23.2715 -27.9335 -30.2362 67.633 -3.05132 -43.4448 -7.64939 -7.7608e-10 9.15093e-10 1.24675e-09 -1.38244e-09 1.61365e-09 2.1282e-09 -7.76074e-10 9.15094e-10 1.24675e-09 7.73091 5.47488 0.417314 -7.76081e-10 9.15094e-10 1.24676e-09 2.90554 0.965183 0.102902 -7.76075e-10 9.15094e-10 1.24675e-09 10.2786 0.731801 0.0259123 -7.76084e-10 9.15095e-10 1.24676e-09 2.22167 -0.733487 -0.20892 2.47222e-14 -8.55002e-15 2.50118e-13 -82.9299 54.0099 -21.7979 24.1629 -19.4046 -50.1289 2.73694 -41.6653 7.18454 7.37682e-11 4.87949e-10 4.78393e-10 1.08827e-10 8.31337e-10 8.22048e-10 7.37618e-11 4.87943e-10 4.78397e-10 -7.73091 5.47488 -0.417314 7.37676e-11 4.87944e-10 4.78393e-10 -2.90554 0.965183 -0.102902 7.37628e-11 4.87944e-10 4.78393e-10 -10.2786 0.731801 -0.0259123 7.37735e-11 4.87945e-10 4.78386e-10 -2.22167 -0.733487 0.20892 -2.03217e-16 0.0 -3.88251e-19 -10.3896 -10.7383 6.53018 -0.155267 27.7658 0.517137 -0.259155 -17.8428 -0.695995 2.03217e-16 0.0 3.88251e-19 8.36803 -9.85381 17.2707 0.212352 36.0477 -0.761147 1.38673 -22.3686 3.56734
-2.17077 80.611 41.9532 0.9708 -14.1105 0.8375 -1.70282 1.69998 -18.6855 -0.510077 -8.37878 -5.48389 -2.42701 -11.9333 1.13228 -14.987 11.7522 4.66726 -0.0 0.0 0.0 -0.0 0.0 0.0 5.3715e-14 -3.08761e-14 3.80669e-13 85.5796 10.5203 -23.2512 -27.9283 -30.2177 67.6155 -3.03754 -43.3701 -7.62934 -1.32223e-09 1.07932e-09 1.45103e-09 -2.33134e-09 1.90095e-09 2.46417e-09 -1.32223e-09 1.07932e-09 1.45103e-09 7.73091 5.47488 0.417314 -1.32224e-09 1.07932e-09 1.45103e-09 2.90554 0.965183 0.102902 -1.32223e-09 1.07932e-09 1.45103e-09 10.2786 0.731801 0.0259123 -1.32224e-09 1.07932e-09 1.45104e-09 2.22167 -0.733487 -0.20892 5.35885e-14 -3.08843e-14 3.80428e-13 -82.9184 53.9999 -21.8086 24.1663 -19.4111 -50.1398 2.74411 -41.7079 7.19534 3.1544e-10 1.05776e-09 9.84575e-10 5.06387e-10 1.8079e-09 1.70162e-09 3.15431e-10 1.05776e-09 9.84577e-10 -7.73091 5.47488 -0.417314 3.15439e-10 1.05776e-09 9.84573e-10 -2.90554 0.965183 -0.102902 3.15434e-10 1.05776e-09 9.84572e-10 -10.2786 0.731801 -0.0259123 3.15443e-10 1.05775e-09 9.84565e-10 -2.22167 -0.733487 0.20892 -2.03217e-16 0.0 -3.88251e-19 -10.3638 -10.6937 6.21554 -0.155371 27.7867 0.51716 -0.263271 -17.8935 -0.707691 2.03217e-16 0.0 3.88251e-19 8.49082 -10.0325 17.1164 0.215591 36.2029 -0.762812 1.34011 -22.3719 3.45707
-2.13639 80.5722 41.929 0.8925 -13.7931 0.8769 -1.7131 1.70144 -18.6521 -0.521924 -8.32279 -5.47408 -2.4281 -12.0057 1.0835 -14.988 11.9129 4.59588 -0.0 0.0 0.0 -0.0 0.0 0.0 6.76848e-14 -4.37286e-14 4.58099e-13 85.6744 10.4578 -23.2606 -27.9255 -30.2079 67.606 -3.03012 -43.3297 -7.6185 -1.54133e-09 1.20493e-09 1.60385e-09 -2.71448e-09 2.1214e-09 2.72134e-09 -1.54132e-09 1.20493e-09 1.60385e-09 7.73091 5.47488 0.417314 -1.54133e-09 1.20493e-09 1.60386e-09 2.90554 0.965183 0.102902 -1.54132e-09 1.20493e-09 1.60386e-09 10.2786 0.731801 0.0259123 -1.54133e-09 1.20494e-09 1.60386e-09 2.22167 -0.733487 -0.20892 6.7543e-14 -4.37377e-14 4.579e-13 -82.8514 54.0426 -21.8202 24.1676 -19.4136 -50.1441 2.7518 -41.7535 7.20691 4.0179e-10 1.27048e-09 1.18344e-09 6.47572e-10 2.17195e-09 2.04661e-09 4.01781e-10 1.27048e-09 1.18344e-09 -7.73091 5.47488 -0.417314 4.0179e-10 1.27047e-09 1.18344e-09 -2.90554 0.965183 -0.102902 4.01784e-10 1.27047e-09 1.18344e-09 -10.2786 0.731801 -0.0259123 4.01793e-10 1.27047e-09 1.18343e-09 -2.22167 -0.733487 0.20892 -2.03217e-16 0.0 -3.88251e-19 -10.3337 -10.6389 5.90527 -0.15541 27.8026 0.517212 -0.271206 -17.9437 -0.72926 2.03217e-16 0.0 3.88251e-19 8.60895 -10.2065 16.9517 0.218823 36.3555 -0.764195 1.28785 -22.3754 3.33356
-2.10741 80.5383 41.901 0.8512 -13.4414 0.9085 -1.76873 1.71648 -18.5705 -0.582101 -8.26551 -5.45407 -2.31929 -12.1049 1.043 -14.9674 12.0173 4.48335 -0.0 0.0 0.0 -0.0 0.0 0.0 5.83033e-14 -4.37084e-14 4.65645e-13 85.8774 10.3016 -23.2905 -27.9268 -30.2129 67.6116 -3.03268 -43.3436 -7.62223 -1.22595e-09 1.28799e-09 1.70063e-09 -2.17398e-09 2.26906e-09 2.89817e-09 -1.22594e-09 1.28799e-09 1.70063e-09 7.73091 5.47488 0.417314 -1.22595e-09 1.28799e-09 1.70063e-09 2.90554 0.965183 0.102902 -1.22594e-09 1.28799e-09 1.70063e-09 10.2786 0.731801 0.0259123 -1.22596e-09 1.288e-09 1.70064e-09 2.22167 -0.733487 -0.20892 5.81942e-14 -4.37143e-14 4.65461e-13 -82.6631 54.1741 -21.868 24.1654 -19.4094 -50.137 2.76208 -41.8141 7.22235 2.39778e-10 8.89682e-10 8.70354e-10 3.79456e-10 1.5182e-09 1.50123e-09 2.39769e-10 8.89681e-10 8.70354e-10 -7.73091 5.47488 -0.417314 2.39779e-10 8.8968e-10 8.70353e-10 -2.90554 0.965183 -0.102902 2.39772e-10 8.89675e-10 8.7035e-10 -10.2786 0.731801 -0.0259123 2.3978e-10 8.89677e-10 8.70342e-10 -2.22167 -0.733487 0.20892 -2.03217e-16 0.0 -3.88251e-19 -10.3007 -10.5939 5.59497 -0.155534 27.8281 0.517517 -0.281471 -17.9869 -0.756836 2.03217e-16 0.0 3.88251e-19 8.71878 -10.3955 16.7695 0.222229 36.5181 -0.765668 1.2294 -22.3864 3.19478
-2.08934 80.5072 41.8735 0.7892 -13.0813 0.9232 -1.85245 1.73754 -18.4567 -0.67686 -8.20506 -5.42739 -2.13512 -12.2304 1.00554 -14.9347 12.0818 4.33785 -0.0 0.0 0.0 -0.0 0.0 0.0 3.43279e-14 -3.62038e-14 4.29863e-13 86.1557 10.0783 -23.3352 -27.9306 -30.227 67.6262 -3.04193 -43.3938 -7.63571 -5.57575e-10 1.33445e-09 1.74655e-09 -1.02294e-09 2.35357e-09 2.99808e-09 -5.57568e-10 1.33445e-09 1.74654e-09 7.73091 5.47488 0.417314 -5.57576e-10 1.33445e-09 1.74655e-09 2.90554 0.965183 0.102902 -5.57569e-10 1.33445e-09 1.74655e-09 10.2786 0.731801 0.0259123 -5.57582e-10 1.33446e-09 1.74656e-09 2.22167 -0.733487 -0.20892 3.4283e-14 -3.62039e-14 4.29679e-13 -82.3874 54.3659 -21.9445 24.1611 -19.4011 -50.123 2.77623 -41.8972 7.24355 -7.94107e-11 1.22777e-10 2.22648e-10 -1.47316e-10 2.02426e-10 3.74078e-10 -7.94175e-11 1.22773e-10 2.22649e-10 -7.73091 5.47488 -0.417314 -7.94089e-11 1.22777e-10 2.22652e-10 -2.90554 0.965183 -0.102902 -7.94159e-11 1.22768e-10 2.22646e-10 -10.2786 0.731801 -0.0259123 -7.941e-11 1.22775e-10 2.22638e-10 -2.22167 -0.733487 0.20892 -2.03217e-16 0.0 -3.88251e-19 -10.2643 -10.5589 5.27812 -0.155753 27.8631 0.518014 -0.292002 -18.0273 -0.785046 2.03217e-16 0.0 3.88251e-19 8.82687 -10.6005 16.5745 0.225827 36.6911 -0.767266 1.16585 -22.403 3.0435
-2.08986 80.4783 41.8486 0.664 -12.735 0.9332 -1.95505 1.75199 -18.3418 -0.764822 -8.15507 -5.40012 -1.93152 -12.3226 0.979264 -14.9261 12.1147 4.20277 -0.0 0.0 0.0 -0.0 0.0 0.0 8.11515e-15 -2.48105e-14 3.69237e-13 86.4371 9.85964 -23.4196 -27.9345 -30.2405 67.6388 -3.05204 -43.4486 -7.65043 1.3322e-10 1.34873e-09 1.74806e-09 1.68223e-10 2.38106e-09 3.02199e-09 1.33227e-10 1.34873e-09 1.74805e-09 7.73091 5.47488 0.417314 1.33218e-10 1.34873e-09 1.74806e-09 2.90554 0.965183 0.102902 1.33226e-10 1.34873e-09 1.74806e-09 10.2786 0.731801 0.0259123 1.33212e-10 1.34873e-09 1.74807e-09 2.22167 -0.733487 -0.20892 8.13484e-15 -2.48048e-14 3.69046e-13 -82.1462 54.5583 -21.9762 24.1568 -19.393 -50.1094 2.78865 -41.9697 7.26213 -4.14822e-10 -6.53844e-10 -4.32251e-10 -7.01644e-10 -1.13032e-09 -7.65752e-10 -4.14827e-10 -6.53851e-10 -4.32249e-10 -7.73091 5.47488 -0.417314 -4.1482e-10 -6.53842e-10 -4.32243e-10 -2.90554 0.965183 -0.102902 -4.14827e-10 -6.53854e-10 -4.32252e-10 -10.2786 0.731801 -0.0259123 -4.14822e-10 -6.53843e-10 -4.32259e-10 -2.22167 -0.733487 0.20892 -2.03217e-16 0.0 -3.88251e-19 -10.2211 -10.4889 4.96961 -0.155718 27.8754 0.518246 -0.307794 -18.0767 -0.826646 2.03217e-16 0.0 3.88251e-19 8.93625 -10.776 16.3794 0.229178 36.8455 -0.768122 1.09757 -22.4104 2.88223
-2.08831 80.456 41.8393 0.5458 -12.3867 0.9496 -2.06718 1.74716 -18.2571 -0.804559 -8.12918 -5.3783 -1.76429 -12.322 0.9723 -14.9777 12.1248 4.12156 -0.0 0.0 0.0 -0.0 0.0 0.0 -7.97854e-15 -1.31241e-14 3.02252e-13 86.6493 9.71698 -23.5682 -27.9361 -30.2442 67.6386 -3.05715 -43.4761 -7.65784 5.15857e-10 1.33523e-09 1.71164e-09 8.29095e-10 2.35769e-09 2.97079e-09 5.15864e-10 1.33523e-09 1.71162e-09 7.73091 5.47488 0.417314 5.15856e-10 1.33523e-09 1.71163e-09 2.90554 0.965183 0.102902 5.15863e-10 1.33523e-09 1.71164e-09 10.2786 0.731801 0.0259123 5.15849e-10 1.33523e-09 1.71164e-09 2.22167 -0.733487 -0.20892 -7.9248e-15 -1.31151e-14 3.02053e-13 -82.0636 54.6916 -21.8879 24.155 -19.3896 -50.1036 2.79366 -41.9989 7.26961 -6.25504e-10 -1.06379e-09 -7.66918e-10 -1.05243e-09 -1.835e-09 -1.34918e-09 -6.25507e-10 -1.06379e-09 -7.66914e-10 -7.73091 5.47488 -0.417314 -6.25501e-10 -1.06378e-09 -7.66908e-10 -2.90554 0.965183 -0.102902 -6.25508e-10 -1.0638e-09 -7.66918e-10 -10.2786 0.731801 -0.0259123 -6.25504e-10 -1.06378e-09 -7.66924e-10 -2.22167 -0.733487 0.20892 -2.03217e-16 0.0 -3.88251e-19 -10.1665 -10.3392 4.68454 -0.155083 27.8324 0.517755 -0.333932 -18.1469 -0.894424 2.03217e-16 0.0 3.88251e-19 9.05072 -10.8766 16.1966 0.231835 36.9525 -0.76736 1.02512 -22.3936 2.71352
-2.07941 80.4509 41.839 0.4436 -12.0191 0.944 -2.21002 1.7183 -18.2071 -0.775071 -8.14678 -5.3621 -1.62419 -12.1429 0.998877 -15.1479 12.0861 4.11655 -0.0 0.0 0.0 -0.0 0.0 0.0 -8.61439e-15 2.19794e-15 2.13061e-13 86.778 9.68194 -23.8434 -27.9347 -30.2346 67.6215 -3.05552 -43.4673 -7.65547 4.17998e-10 1.28576e-09 1.62292e-09 6.62752e-10 2.2675e-09 2.81427e-09 4.18003e-10 1.28576e-09 1.6229e-09 7.73091 5.47488 0.417314 4.17996e-10 1.28577e-09 1.62292e-09 2.90554 0.965183 0.102902 4.18004e-10 1.28577e-09 1.62292e-09 10.2786 0.731801 0.0259123 4.1799e-10 1.28577e-09 1.62292e-09 2.22167 -0.733487 -0.20892 -8.57838e-15 2.20676e-15 2.12848e-13 -82.2442 54.7396 -21.575 24.159 -19.3972 -50.1166 2.7895 -41.9746 7.26339 -6.6057e-10 -8.99453e-10 -5.93089e-10 -1.11862e-09 -1.55669e-09 -1.04979e-09 -6.60573e-10 -8.99459e-10 -5.93086e-10 -7.73091 5.47488 -0.417314 -6.60568e-10 -8.99449e-10 -5.93082e-10 -2.90554 0.965183 -0.102902 -6.60574e-10 -8.9946e-10 -5.93089e-10 -10.2786 0.731801 -0.0259123 -6.6057e-10 -8.9945e-10 -5.93096e-10 -2.22167 -0.733487 0.20892 -2.03217e-16 0.0 -3.88251e-19 -10.0994 -10.0748 4.43391 -0.153703 27.7204 0.51639 -0.372813 -18.2537 -0.993569 2.03217e-16 0.0 3.88251e-19 9.17176 -10.8582 16.0401 0.233504 36.9921 -0.764297 0.946826 -22.3378 2.53426
